<svg xmlns="http://www.w3.org/2000/svg" width="39.498" height="40" viewBox="0 0 39.498 40"><defs><style>.a{fill:#2ba7df;}.b{fill:#fff;}</style></defs><path class="a" d="M139.322,137.443q15.618-2.225,31.236-4.45a2.1,2.1,0,0,1,2.181,1.391,2.37,2.37,0,0,1,.114.931q0,3.087,0,6.174A62.514,62.514,0,0,0,158.682,157.1c-.559-.524-1.113-1.053-1.632-1.617a5.407,5.407,0,0,0,1.931-2.776,3.782,3.782,0,0,0,0-2.159,15.209,15.209,0,0,0-1.248-2.7,3.473,3.473,0,0,0-1.918-1.777,2.349,2.349,0,0,0-2.6.932,2.948,2.948,0,0,0-.3,1.975,6.772,6.772,0,0,0,.508,1.564,22.259,22.259,0,0,0,1.623,3.157,17.765,17.765,0,0,1-6.65,1.806,34.315,34.315,0,0,1-11.03-.572q0-7.593,0-15.185a2.171,2.171,0,0,1,.989-1.972,2.213,2.213,0,0,1,.966-.33M154.18,143.3a.276.276,0,0,1-.386.11c-.339-.208-.675-.423-1.012-.635a3.718,3.718,0,0,0-.4.532,13.82,13.82,0,0,0-.788,1.309c.524.356,1.069.681,1.6,1.024a6.031,6.031,0,0,0,.736-1.037.28.28,0,0,1,.405-.121c.339.2.685.394,1.031.584a5.147,5.147,0,0,0,.541-.755,12.557,12.557,0,0,0,.636-1.1c-.543-.312-1.089-.618-1.631-.933A5.085,5.085,0,0,0,154.18,143.3Z" transform="translate(-137.361 -132.98)"/><path class="a" d="M768.362,175.619a1.028,1.028,0,0,1,.909.137.983.983,0,0,1,.4.8q-.022,14.844-.041,29.688a1.068,1.068,0,0,1-.748,1,1.009,1.009,0,0,1-.962-.246,1.241,1.241,0,0,0,.91-1.169q0-14.668,0-29.336A1.1,1.1,0,0,0,768.362,175.619Z" transform="translate(-730.173 -173.021)"/><path class="a" d="M159.924,345.848a62.264,62.264,0,0,1,13.012-14.618c0,6.879-.007,13.759.008,20.638a2.916,2.916,0,0,1-.837,2.118,1.783,1.783,0,0,1-1.219.558q-6.716,0-13.431,0c-1.671,1.6-3.328,3.219-5,4.821q-1.111-2.409-2.222-4.819H140.061a3.734,3.734,0,0,1-1.081-.075,2.14,2.14,0,0,1-1.53-1.935c.007-2.946,0-5.894,0-8.841a34.305,34.305,0,0,0,12.934.594,17.846,17.846,0,0,0,3.75-.915,14.394,14.394,0,0,0,2.483-1.165C157.64,343.492,158.8,344.654,159.924,345.848Z" transform="translate(-137.445 -319.362)"/><path class="a" d="M419.478,394.22a2.381,2.381,0,0,1,2-.212,1.106,1.106,0,0,1,.648.431,1.22,1.22,0,0,1,.066.885,5,5,0,0,1-2.314,3.2c-.306-.411-.6-.831-.886-1.257a2.465,2.465,0,0,1-.338-1.576A1.9,1.9,0,0,1,419.478,394.22Z" transform="translate(-401.807 -378.261)"/><g transform="translate(0.008 0.63)"><path class="b" d="M716.088,143.51c1.012.715,2.029,1.422,3.043,2.135a.87.87,0,0,1,.344.65c.015,6.663,0,13.327.007,19.99,0,3.175.016,6.35.006,9.526a1.068,1.068,0,0,1-.764.87q-1.565.551-3.134,1.1a3.034,3.034,0,0,0,1.042-2.212q0-15.266,0-30.532A2.541,2.541,0,0,0,716.088,143.51Z" transform="translate(-680.984 -143.51)"/><path class="b" d="M158.813,290.736a62.514,62.514,0,0,1,14.171-15.605q0,1.679,0,3.358a62.265,62.265,0,0,0-13.012,14.618c-1.122-1.194-2.284-2.356-3.3-3.641a14.391,14.391,0,0,1-2.483,1.165,17.849,17.849,0,0,1-3.75.915,34.3,34.3,0,0,1-12.934-.594v-2.379a34.316,34.316,0,0,0,11.03.572,17.765,17.765,0,0,0,6.649-1.806,22.261,22.261,0,0,1-1.623-3.157,6.77,6.77,0,0,1-.508-1.564,2.948,2.948,0,0,1,.3-1.975,2.349,2.349,0,0,1,2.6-.932,3.473,3.473,0,0,1,1.918,1.777,15.21,15.21,0,0,1,1.248,2.7,3.782,3.782,0,0,1,0,2.159,5.406,5.406,0,0,1-1.931,2.776c.519.564,1.073,1.093,1.632,1.617m-3.65-8.156a1.9,1.9,0,0,0-.821,1.467,2.465,2.465,0,0,0,.338,1.576c.286.426.58.846.886,1.257a5,5,0,0,0,2.314-3.2,1.22,1.22,0,0,0-.066-.885,1.105,1.105,0,0,0-.648-.431A2.381,2.381,0,0,0,155.162,282.579Z" transform="translate(-137.5 -267.251)"/><path class="b" d="M377.734,289.324a5.087,5.087,0,0,1,.736-1.024c.542.314,1.088.62,1.631.933a12.548,12.548,0,0,1-.636,1.1,5.146,5.146,0,0,1-.541.755c-.347-.19-.692-.382-1.031-.584a.28.28,0,0,0-.405.121,6.029,6.029,0,0,1-.736,1.037c-.533-.343-1.078-.668-1.6-1.024a13.815,13.815,0,0,1,.788-1.309,3.714,3.714,0,0,1,.4-.532c.336.213.672.427,1.012.635A.277.277,0,0,0,377.734,289.324Z" transform="translate(-360.924 -279.633)"/></g></svg>