<svg id="book" xmlns="http://www.w3.org/2000/svg" width="15.76" height="21.927" viewBox="0 0 15.76 21.927">
  <path id="Tracé_305" data-name="Tracé 305" d="M87.075,0H74.826A2.83,2.83,0,0,0,72,2.826V18.843a3.087,3.087,0,0,0,3.083,3.083H87.075a.685.685,0,1,0,0-1.37H75.083a1.713,1.713,0,0,1,0-3.426H87.075a.685.685,0,0,0,.685-.685V.685A.685.685,0,0,0,87.075,0ZM73.37,15.907V2.826A1.456,1.456,0,0,1,74.826,1.37h.043a.214.214,0,0,1,.214.214V15.553a.213.213,0,0,1-.2.213,3.06,3.06,0,0,0-1.206.332A.214.214,0,0,1,73.37,15.907Z" transform="translate(-72)"/>
  <path id="Tracé_306" data-name="Tracé 306" d="M140.676,424H128.685a.685.685,0,1,0,0,1.37h11.991a.685.685,0,1,0,0-1.37Z" transform="translate(-125.602 -405.842)"/>
</svg>
