<svg xmlns="http://www.w3.org/2000/svg" width="20.715" height="16.948" viewBox="0 0 20.715 16.948">
  <g id="cast" transform="translate(0 -42.667)">
    <g id="Groupe_7174" data-name="Groupe 7174" transform="translate(0 42.667)">
      <g id="Groupe_7173" data-name="Groupe 7173" transform="translate(0 0)">
        <path id="Tracé_7187" data-name="Tracé 7187" d="M0,277.333v1.883a4.71,4.71,0,0,1,4.708,4.708H6.591A6.592,6.592,0,0,0,0,277.333Z" transform="translate(0 -266.976)"/>
        <path id="Tracé_7188" data-name="Tracé 7188" d="M0,362.667v2.825H2.825A2.827,2.827,0,0,0,0,362.667Z" transform="translate(0 -348.543)"/>
        <path id="Tracé_7189" data-name="Tracé 7189" d="M18.831,42.667H1.883A1.883,1.883,0,0,0,0,44.55v2.825H1.883V44.55H18.831V57.732H12.24v1.883h6.591a1.883,1.883,0,0,0,1.883-1.883V44.55A1.883,1.883,0,0,0,18.831,42.667Z" transform="translate(0 -42.667)"/>
        <path id="Tracé_7190" data-name="Tracé 7190" d="M0,192v1.883a8.475,8.475,0,0,1,8.474,8.474h1.883A10.357,10.357,0,0,0,0,192Z" transform="translate(0 -185.409)"/>
      </g>
    </g>
  </g>
</svg>
