<svg xmlns="http://www.w3.org/2000/svg" width="11.675" height="16.521" viewBox="0 0 11.675 16.521">
  <g id="user" transform="translate(0 -3)">
    <path id="Tracé_7187" data-name="Tracé 7187" d="M130.9,8.084A3.169,3.169,0,0,0,133.367,6.9a4.24,4.24,0,0,0,1.024-2.858,4.24,4.24,0,0,0-1.024-2.858,3.17,3.17,0,0,0-4.942,0A4.24,4.24,0,0,0,127.4,4.042,4.24,4.24,0,0,0,128.426,6.9,3.17,3.17,0,0,0,130.9,8.084Zm0,0" transform="translate(-125.143 3)"/>
    <path id="Tracé_7188" data-name="Tracé 7188" d="M11.647,366.843c-.019-.328-.057-.685-.113-1.062a9.792,9.792,0,0,0-.217-1.068,5.867,5.867,0,0,0-.365-1,3.763,3.763,0,0,0-.551-.863,2.42,2.42,0,0,0-.792-.6,2.334,2.334,0,0,0-1.011-.22c-.143,0-.224,0-.491.21-.164.129-.356.277-.571.442a3.739,3.739,0,0,1-.806.346,2.193,2.193,0,0,1-.843.179,2.812,2.812,0,0,1-.963-.179,2.5,2.5,0,0,1-.67-.346c-.212-.163-.4-.312-.571-.442a.864.864,0,0,0-.6-.21,2.331,2.331,0,0,0-1.011.22,2.418,2.418,0,0,0-.792.6,3.765,3.765,0,0,0-.551.863,5.879,5.879,0,0,0-.365,1,9.819,9.819,0,0,0-.217,1.068c-.056.377-.094.734-.113,1.063S0,367.5,0,367.837a3.11,3.11,0,0,0,.69,2.112,2.26,2.26,0,0,0,1.778.78H9.206a2.26,2.26,0,0,0,1.778-.78,3.109,3.109,0,0,0,.69-2.113c0-.339-.01-.673-.028-.993Zm0,0" transform="translate(0 -351.207)"/>
  </g>
</svg>
