<?xml version="1.0" encoding="utf-8"?>
<!-- Generator: Adobe Illustrator 24.0.2, SVG Export Plug-In . SVG Version: 6.00 Build 0)  -->
<svg version="1.1" id="Calque_1" xmlns="http://www.w3.org/2000/svg" xmlns:xlink="http://www.w3.org/1999/xlink" x="0px" y="0px"
	 viewBox="0 0 21.5 12.3" style="enable-background:new 0 0 21.5 12.3;" xml:space="preserve">
<g id="Icon_ionic-ios-videocam" transform="translate(-2.25 -9)">
	<path id="Tracé_7832" d="M22.4,10.2c-0.2,0-0.3,0-0.4,0.1L17.8,13c-0.1,0.1-0.2,0.2-0.2,0.3V17c0,0.1,0.1,0.3,0.2,0.3l4.2,2.6
		c0.1,0.1,0.3,0.1,0.4,0.1h1c0.2,0,0.4-0.2,0.4-0.4c0,0,0,0,0,0v-9c0-0.2-0.2-0.4-0.4-0.4H22.4z"/>
	<path id="Tracé_7833" d="M13.9,21.3H4.7c-1.4,0-2.5-1.1-2.5-2.5v-7.4C2.3,10.1,3.4,9,4.7,9h9.1c1.4,0,2.5,1.1,2.5,2.5v7.4
		C16.3,20.2,15.2,21.3,13.9,21.3z"/>
</g>
</svg>
