<svg xmlns="http://www.w3.org/2000/svg" width="26.661" height="20" viewBox="0 0 26.661 20">
  <path id="Icon_ionic-logo-youtube" data-name="Icon ionic-logo-youtube" d="M26.488,8.916a4.048,4.048,0,0,0-3.854-4.229C19.749,4.552,16.806,4.5,13.8,4.5h-.937c-3,0-5.948.052-8.833.187A4.057,4.057,0,0,0,.182,8.927C.052,10.781-.005,12.635,0,14.489S.052,18.2.177,20.056A4.062,4.062,0,0,0,4.026,24.3c3.031.141,6.14.2,9.3.2q4.75.016,9.3-.2a4.063,4.063,0,0,0,3.854-4.245c.125-1.859.182-3.713.177-5.573Q26.675,11.7,26.488,8.916ZM10.781,19.6V9.364l7.552,5.114Z" transform="translate(0 -4.5)"/>
</svg>
